<svg width="52" height="52" viewBox="0 0 52 52" fill="none" xmlns="http://www.w3.org/2000/svg">
<circle cx="26" cy="26" r="26" fill="#EAF5FA"/>
<path fill-rule="evenodd" clip-rule="evenodd" d="M36.9882 29.624C35.5664 28.5755 34.0017 27.7361 32.3417 27.1316C33.6153 25.9333 34.5194 24.3957 34.9473 22.7002C35.3752 21.0047 35.309 19.2222 34.7565 17.5631C34.204 15.904 33.1883 14.4377 31.8294 13.3372C30.4704 12.2368 28.825 11.5481 27.0873 11.3526C26.7287 11.2997 26.3664 11.2761 26.004 11.2822C25.6415 11.2761 25.2792 11.2997 24.9206 11.3526C23.1831 11.5484 21.5378 12.2371 20.1791 13.3376C18.8203 14.4381 17.8047 15.9044 17.2523 17.5634C16.6998 19.2224 16.6336 21.0047 17.0613 22.7002C17.489 24.3956 18.3929 25.9332 19.6662 27.1316C18.0065 27.7363 16.4421 28.5756 15.0204 29.624C14.4341 30.0549 13.9573 30.6177 13.6287 31.267C13.3001 31.9162 13.1289 32.6337 13.1289 33.3614C13.1289 34.089 13.3001 34.8065 13.6287 35.4557C13.9573 36.105 14.4341 36.6678 15.0204 37.0987C18.1993 39.4514 22.0496 40.7212 26.0043 40.7212C29.9591 40.7212 33.8094 39.4514 36.9882 37.0987C37.5745 36.6677 38.0511 36.1049 38.3796 35.4556C38.7081 34.8064 38.8792 34.089 38.8792 33.3614C38.8792 32.6337 38.7081 31.9163 38.3796 31.2671C38.0511 30.6179 37.5745 30.055 36.9882 29.624ZM25.4327 14.999C25.6214 14.968 25.8128 14.9558 26.004 14.9624C26.1954 14.9558 26.387 14.968 26.576 14.999C27.9864 15.1455 29.2867 15.8278 30.2086 16.9052C31.1305 17.9826 31.6036 19.3729 31.5303 20.7889C31.4569 22.205 30.8427 23.5389 29.8145 24.5153C28.7862 25.4917 27.4223 26.0361 26.0043 26.0361C24.5863 26.0361 23.2225 25.4917 22.1942 24.5153C21.1659 23.5389 20.5517 22.205 20.4784 20.7889C20.405 19.3729 20.8781 17.9826 21.8 16.9052C22.7219 15.8278 24.0223 15.1455 25.4327 14.999ZM34.7912 34.1422C32.2483 36.0248 29.1679 37.0409 26.004 37.0409C22.84 37.0409 19.7596 36.0248 17.2167 34.1422C17.0931 34.053 16.9924 33.9356 16.923 33.7999C16.8536 33.6642 16.8174 33.5139 16.8174 33.3614C16.8174 33.209 16.8536 33.0587 16.923 32.9229C16.9924 32.7872 17.0931 32.6699 17.2167 32.5806C19.7596 30.698 22.84 29.6819 26.004 29.6819C29.1679 29.6819 32.2483 30.698 34.7912 32.5806C34.9149 32.6698 35.0156 32.7871 35.085 32.9229C35.1545 33.0586 35.1907 33.2089 35.1907 33.3614C35.1907 33.5139 35.1545 33.6642 35.085 33.7999C35.0156 33.9357 34.9149 34.053 34.7913 34.1422L34.7912 34.1422Z" fill="#229BD8"/>
</svg>
